# WaveFront *.obj file (generated by Autodesk ATF)

mtllib base.mtl

g Solid1

v -2.735093 -1.250000 0.000000
v -2.735093 -1.250000 1.000000
v -2.735093 1.250000 1.000000
v -2.735093 1.250000 0.000000
v -3.300000 -1.250000 1.000000
v -3.300000 -1.500000 1.000000
v -3.800000 -1.500000 1.000000
v -3.800000 1.500000 1.000000
v -3.300000 1.500000 1.000000
v -3.300000 1.250000 1.000000
v -3.300000 -1.500000 0.000000
v -3.800000 -1.500000 0.000000
v -3.300000 1.500000 0.000000
v -3.800000 1.500000 0.000000
v 0.000000 -1.250000 0.000000
v 0.000000 -1.250000 1.500000
v -3.300000 -1.250000 1.500000
v -3.300000 1.250000 1.500000
v 0.000000 1.250000 1.500000
v 0.000000 1.250000 0.000000
v -0.000000 2.000000 0.000000
v 2.200000 2.000000 0.000000
v 2.200000 -2.000000 0.000000
v 0.000000 -2.000000 0.000000
v -3.800000 2.000000 0.000000
v -3.300000 2.000000 0.000000
v -3.300000 2.000000 1.500000
v 2.200000 2.000000 1.500000
v 2.200000 -2.000000 1.500000
v 0.000000 -2.000000 1.500000
v -3.300000 -2.000000 1.500000
v -3.300000 -2.000000 0.000000
v -3.800000 -2.000000 0.000000
v -3.800000 -2.000000 1.500000
v -3.800000 2.000000 1.500000
v -0.000000 2.000000 1.500000
vt -0.250000 1.000000 0.000000
vt -2.750000 1.000000 0.000000
vt -0.250000 0.000000 0.000000
vt -2.750000 0.000000 0.000000
vt 0.032454 -1.500000 0.000000
vt 0.532454 -1.500000 0.000000
vt 0.032454 -1.250000 0.000000
vt 0.032454 1.250000 0.000000
vt -0.532454 1.250000 0.000000
vt 0.532454 1.500000 0.000000
vt 0.032454 1.500000 0.000000
vt -0.532454 -1.250000 0.000000
vt -0.500000 0.000000 0.000000
vt -0.000000 0.000000 0.000000
vt -0.500000 1.000000 0.000000
vt -0.000000 1.000000 0.000000
vt -0.564907 1.000000 0.000000
vt -1.064907 1.000000 0.000000
vt -0.564907 0.000000 0.000000
vt -1.064907 0.000000 0.000000
vt 0.000000 1.000000 0.000000
vt 0.564907 1.000000 0.000000
vt 0.000000 1.500000 0.000000
vt 3.300000 1.500000 0.000000
vt 3.300000 0.000000 0.000000
vt 0.564907 0.000000 0.000000
vt 2.735093 0.000000 0.000000
vt 2.735093 1.000000 0.000000
vt -0.000000 0.000000 0.000000
vt -0.000000 1.500000 0.000000
vt 3.300000 1.500000 0.000000
vt 3.300000 1.000000 0.000000
vt 1.824223 1.250000 0.000000
vt -0.910870 1.250000 0.000000
vt 1.824223 -1.250000 0.000000
vt -0.910870 -1.250000 0.000000
vt -3.110870 -2.000000 0.000000
vt -0.910870 -2.000000 0.000000
vt -0.910870 2.000000 0.000000
vt -3.110870 2.000000 0.000000
vt 2.389130 1.500000 0.000000
vt 2.889130 1.500000 0.000000
vt 2.389130 2.000000 0.000000
vt 2.889130 2.000000 0.000000
vt 0.000000 1.000000 0.000000
vt 0.250000 1.000000 0.000000
vt 0.000000 1.500000 0.000000
vt 0.750000 1.500000 0.000000
vt 0.750000 0.000000 0.000000
vt 0.250000 0.000000 0.000000
vt 0.000000 0.000000 0.000000
vt 4.000000 0.000000 0.000000
vt -0.000000 1.500000 0.000000
vt 4.000000 1.500000 0.000000
vt 0.000000 0.000000 0.000000
vt 2.200000 0.000000 0.000000
vt 0.000000 1.500000 0.000000
vt 2.200000 1.500000 0.000000
vt 0.000000 0.000000 0.000000
vt 0.750000 0.000000 0.000000
vt 0.000000 1.500000 0.000000
vt 0.750000 1.500000 0.000000
vt 0.750000 1.000000 0.000000
vt 0.750000 1.500000 0.000000
vt 0.500000 1.000000 0.000000
vt 0.000000 1.500000 0.000000
vt 0.000000 0.000000 0.000000
vt 0.500000 0.000000 0.000000
vt 0.000000 0.000000 0.000000
vt 0.500000 0.000000 0.000000
vt 0.000000 1.500000 0.000000
vt 0.500000 1.500000 0.000000
vt 3.500000 0.000000 0.000000
vt 4.000000 0.000000 0.000000
vt 3.500000 1.000000 0.000000
vt 4.000000 1.500000 0.000000
vt 0.000000 1.500000 0.000000
vt 0.500000 1.000000 0.000000
vt 0.000000 0.000000 0.000000
vt 0.500000 0.000000 0.000000
vt -0.000000 0.000000 0.000000
vt 0.500000 0.000000 0.000000
vt -0.000000 1.500000 0.000000
vt 0.500000 1.500000 0.000000
vt 0.000000 0.000000 0.000000
vt 0.750000 0.000000 0.000000
vt 0.000000 1.500000 0.000000
vt 0.750000 1.500000 0.000000
vt 0.000000 0.000000 0.000000
vt 2.200000 0.000000 0.000000
vt 0.000000 1.500000 0.000000
vt 2.200000 1.500000 0.000000
vt 2.889130 -1.500000 0.000000
vt 2.389130 -1.500000 0.000000
vt 2.889130 -2.000000 0.000000
vt 2.389130 -2.000000 0.000000
vt 0.910870 2.000000 0.000000
vt 0.910870 1.250000 0.000000
vt 3.110870 2.000000 0.000000
vt 3.110870 -2.000000 0.000000
vt 0.910870 -1.250000 0.000000
vt 0.910870 -2.000000 0.000000
vt -2.389130 1.250000 0.000000
vt -2.389130 -1.250000 0.000000
vt -2.889130 -2.000000 0.000000
vt -2.389130 -2.000000 0.000000
vt -2.389130 2.000000 0.000000
vt -2.889130 2.000000 0.000000
vn -1.000000 0.000000 -0.000000
vn -1.000000 0.000000 -0.000000
vn -1.000000 0.000000 -0.000000
vn -1.000000 0.000000 -0.000000
vn -0.000000 -0.000000 -1.000000
vn -0.000000 -0.000000 -1.000000
vn -0.000000 -0.000000 -1.000000
vn -0.000000 -0.000000 -1.000000
vn -0.000000 -0.000000 -1.000000
vn -0.000000 -0.000000 -1.000000
vn -0.000000 -0.000000 -1.000000
vn -0.000000 -0.000000 -1.000000
vn -0.000000 1.000000 -0.000000
vn -0.000000 1.000000 -0.000000
vn -0.000000 1.000000 -0.000000
vn -0.000000 1.000000 -0.000000
vn -0.000000 -1.000000 -0.000000
vn -0.000000 -1.000000 -0.000000
vn -0.000000 -1.000000 -0.000000
vn -0.000000 -1.000000 -0.000000
vn 0.000000 -1.000000 0.000000
vn 0.000000 -1.000000 0.000000
vn 0.000000 -1.000000 0.000000
vn 0.000000 -1.000000 0.000000
vn 0.000000 -1.000000 0.000000
vn 0.000000 -1.000000 0.000000
vn -0.000000 1.000000 0.000000
vn -0.000000 1.000000 0.000000
vn -0.000000 1.000000 0.000000
vn -0.000000 1.000000 0.000000
vn -0.000000 1.000000 0.000000
vn -0.000000 1.000000 0.000000
vn -0.000000 -0.000000 -1.000000
vn -0.000000 -0.000000 -1.000000
vn -0.000000 -0.000000 -1.000000
vn -0.000000 -0.000000 -1.000000
vn -0.000000 -0.000000 -1.000000
vn -0.000000 -0.000000 -1.000000
vn -0.000000 -0.000000 -1.000000
vn -0.000000 -0.000000 -1.000000
vn -0.000000 -0.000000 -1.000000
vn -0.000000 -0.000000 -1.000000
vn -0.000000 -0.000000 -1.000000
vn -0.000000 -0.000000 -1.000000
vn 1.000000 0.000000 -0.000000
vn 1.000000 0.000000 -0.000000
vn 1.000000 0.000000 -0.000000
vn 1.000000 0.000000 -0.000000
vn 1.000000 0.000000 -0.000000
vn 1.000000 0.000000 -0.000000
vn 1.000000 0.000000 -0.000000
vn 1.000000 0.000000 -0.000000
vn 1.000000 0.000000 -0.000000
vn 1.000000 0.000000 -0.000000
vn 0.000000 -1.000000 0.000000
vn 0.000000 -1.000000 0.000000
vn 0.000000 -1.000000 0.000000
vn 0.000000 -1.000000 0.000000
vn -1.000000 0.000000 0.000000
vn -1.000000 0.000000 0.000000
vn -1.000000 0.000000 0.000000
vn -1.000000 0.000000 0.000000
vn 1.000000 0.000000 -0.000000
vn 1.000000 0.000000 -0.000000
vn 1.000000 0.000000 -0.000000
vn 1.000000 0.000000 -0.000000
vn 1.000000 0.000000 -0.000000
vn 1.000000 0.000000 -0.000000
vn 0.000000 -1.000000 0.000000
vn 0.000000 -1.000000 0.000000
vn 0.000000 -1.000000 0.000000
vn 0.000000 -1.000000 0.000000
vn -1.000000 0.000000 0.000000
vn -1.000000 0.000000 0.000000
vn -1.000000 0.000000 0.000000
vn -1.000000 0.000000 0.000000
vn -1.000000 0.000000 0.000000
vn -1.000000 0.000000 0.000000
vn -1.000000 0.000000 0.000000
vn -1.000000 0.000000 0.000000
vn -0.000000 1.000000 0.000000
vn -0.000000 1.000000 0.000000
vn -0.000000 1.000000 0.000000
vn -0.000000 1.000000 0.000000
vn -1.000000 -0.000000 0.000000
vn -1.000000 -0.000000 0.000000
vn -1.000000 -0.000000 0.000000
vn -1.000000 -0.000000 0.000000
vn 0.000000 1.000000 -0.000000
vn 0.000000 1.000000 -0.000000
vn 0.000000 1.000000 -0.000000
vn 0.000000 1.000000 -0.000000
vn -0.000000 -0.000000 -1.000000
vn -0.000000 -0.000000 -1.000000
vn -0.000000 -0.000000 -1.000000
vn -0.000000 -0.000000 -1.000000
vn 0.000000 0.000000 1.000000
vn 0.000000 0.000000 1.000000
vn 0.000000 0.000000 1.000000
vn 0.000000 0.000000 1.000000
vn 0.000000 0.000000 1.000000
vn 0.000000 0.000000 1.000000
vn 0.000000 0.000000 1.000000
vn 0.000000 0.000000 1.000000
vn 0.000000 0.000000 1.000000
vn 0.000000 0.000000 1.000000
vn 0.000000 0.000000 1.000000
vn 0.000000 0.000000 1.000000
usemtl 191,191,191
f 2/1/1 3/2/2 1/3/3
f 1/3/3 3/2/2 4/4/4
f 6/5/5 7/6/6 5/7/7
f 5/7/7 7/6/6 10/8/8
f 5/7/7 10/8/8 3/9/9
f 7/6/6 8/10/10 10/8/8
f 10/8/8 8/10/10 9/11/11
f 3/9/9 2/12/12 5/7/7
f 11/13/13 12/14/14 6/15/15
f 6/15/15 12/14/14 7/16/16
f 9/17/17 8/18/18 13/19/19
f 13/19/19 8/18/18 14/20/20
f 5/21/21 2/22/22 17/23/23
f 17/23/23 2/22/22 16/24/24
f 16/24/24 2/22/22 15/25/25
f 15/25/25 2/22/22 1/26/26
f 4/27/27 3/28/28 20/29/29
f 20/29/29 3/28/28 19/30/30
f 19/30/30 3/28/28 18/31/31
f 18/31/31 3/28/28 10/32/32
f 4/33/33 20/34/34 1/35/35
f 1/35/35 20/34/34 15/36/36
f 15/36/36 20/34/34 23/37/37
f 15/36/36 23/37/37 24/38/38
f 21/39/39 22/40/40 20/34/34
f 20/34/34 22/40/40 23/37/37
f 13/41/41 14/42/42 26/43/43
f 26/43/43 14/42/42 25/44/44
f 10/45/45 9/46/46 18/47/47
f 18/47/47 9/46/46 27/48/48
f 27/48/48 9/46/46 26/49/49
f 26/49/49 9/46/46 13/50/50
f 23/51/51 22/52/52 29/53/53
f 29/53/53 22/52/52 28/54/54
f 24/55/55 23/56/56 30/57/57
f 30/57/57 23/56/56 29/58/58
f 15/59/59 24/60/60 16/61/61
f 16/61/61 24/60/60 30/62/62
f 5/63/63 17/64/64 6/65/65
f 6/65/65 17/64/64 31/66/66
f 6/65/65 31/66/66 32/67/67
f 32/67/67 11/68/68 6/65/65
f 33/69/69 32/70/70 34/71/71
f 34/71/71 32/70/70 31/72/72
f 12/73/73 33/74/74 7/75/75
f 7/75/75 33/74/74 34/76/76
f 7/75/75 34/76/76 35/77/77
f 7/75/75 35/77/77 8/78/78
f 8/78/78 35/77/77 25/79/79
f 8/78/78 25/79/79 14/80/80
f 26/81/81 25/82/82 27/83/83
f 27/83/83 25/82/82 35/84/84
f 21/85/85 20/86/86 36/87/87
f 36/87/87 20/86/86 19/88/88
f 22/89/89 21/90/90 28/91/91
f 28/91/91 21/90/90 36/92/92
f 12/93/93 11/94/94 33/95/95
f 33/95/95 11/94/94 32/96/96
f 36/97/97 19/98/98 28/99/99
f 28/99/99 19/98/98 29/100/100
f 29/100/100 19/98/98 16/101/101
f 29/100/100 16/101/101 30/102/102
f 19/98/98 18/103/103 16/101/101
f 16/101/101 18/103/103 17/104/104
f 17/104/104 18/103/103 34/105/105
f 17/104/104 34/105/105 31/106/106
f 27/107/107 35/108/108 18/103/103
f 18/103/103 35/108/108 34/105/105

# 36 vertices
# 108 texture params
# 108 normals
# 68 facets

# 1 groups
