# WaveFront *.obj file (generated by Autodesk ATF)

mtllib frame.mtl

g Solid1

v 12.000000 15.000000 -0.000000
v 12.000000 15.000000 100.000000
v 12.000000 18.000000 100.000000
v 12.000000 18.000000 -0.000000
v 12.000000 -15.000000 100.000000
v 12.000000 -15.000000 -0.000000
v 12.000000 -18.000000 -0.000000
v 12.000000 -18.000000 100.000000
v 8.000000 15.000000 100.000000
v 8.000000 15.000000 0.000000
v 8.000000 18.000000 0.000000
v 8.000000 18.000000 100.000000
v 8.000000 -15.000000 0.000000
v 8.000000 -15.000000 100.000000
v 8.000000 -18.000000 100.000000
v 8.000000 -18.000000 0.000000
v 15.000000 -15.000000 0.000000
v 15.000000 15.000000 0.000000
v 5.000000 15.000000 0.000000
v 5.000000 18.000000 0.000000
v 0.000000 18.000000 0.000000
v 0.000000 -18.000000 0.000000
v 5.000000 -18.000000 0.000000
v 5.000000 -15.000000 0.000000
v 15.000000 -15.000000 100.000000
v 5.000000 15.000000 100.000000
v 5.000000 -15.000000 100.000000
v 15.000000 15.000000 100.000000
v -0.000000 -18.000000 -8.000000
v 15.000000 -18.000000 -8.000000
v 15.000000 -18.000000 108.000000
v 5.000000 -18.000000 108.000000
v -0.000000 18.000000 -8.000000
v 15.000000 18.000000 -8.000000
v 15.000000 18.000000 108.000000
v 5.000000 18.000000 108.000000
vt 0.000000 3.000000 0.000000
vt -100.000000 3.000000 0.000000
vt 0.000000 0.000000 0.000000
vt -100.000000 0.000000 0.000000
vt -100.000000 33.000000 0.000000
vt 0.000000 33.000000 0.000000
vt -100.000000 36.000000 0.000000
vt 0.000000 36.000000 0.000000
vt 0.000000 3.000000 0.000000
vt -100.000000 3.000000 0.000000
vt -0.000000 0.000000 0.000000
vt -100.000000 0.000000 0.000000
vt -100.000000 33.000000 0.000000
vt 0.000000 33.000000 0.000000
vt -100.000000 36.000000 0.000000
vt 0.000000 36.000000 0.000000
vt 15.000000 -15.000000 0.000000
vt 12.000000 15.000000 0.000000
vt 12.000000 -15.000000 0.000000
vt 8.000000 15.000000 0.000000
vt 8.000000 -15.000000 0.000000
vt 5.000000 15.000000 0.000000
vt 5.000000 -15.000000 0.000000
vt 0.000000 -18.000000 0.000000
vt 5.000000 -18.000000 0.000000
vt 15.000000 15.000000 0.000000
vt 12.000000 18.000000 0.000000
vt 8.000000 18.000000 0.000000
vt 5.000000 18.000000 0.000000
vt 0.000000 18.000000 0.000000
vt 8.000000 -18.000000 0.000000
vt 12.000000 -18.000000 0.000000
vt -100.000000 7.000000 0.000000
vt -0.000000 7.000000 0.000000
vt -100.000000 10.000000 0.000000
vt 0.000000 10.000000 0.000000
vt -0.000000 3.000000 0.000000
vt -100.000000 3.000000 0.000000
vt -0.000000 0.000000 0.000000
vt -100.000000 0.000000 0.000000
vt -0.000000 3.000000 0.000000
vt -100.000000 3.000000 0.000000
vt 0.000000 0.000000 0.000000
vt -100.000000 0.000000 0.000000
vt -30.000000 0.000000 0.000000
vt -0.000000 0.000000 0.000000
vt -30.000000 3.000000 0.000000
vt -0.000000 3.000000 0.000000
vt -30.000000 7.000000 0.000000
vt -0.000000 7.000000 0.000000
vt -30.000000 10.000000 0.000000
vt -0.000000 10.000000 0.000000
vt 3.000000 3.000000 0.000000
vt 3.000000 7.000000 0.000000
vt -33.000000 7.000000 0.000000
vt -33.000000 3.000000 0.000000
vt -100.000000 7.000000 0.000000
vt 0.000000 7.000000 0.000000
vt -100.000000 10.000000 0.000000
vt -0.000000 10.000000 0.000000
vt -52.061069 2.438931 0.000000
vt -60.061069 -4.561069 0.000000
vt -52.061069 -1.561069 0.000000
vt 47.938931 -4.561069 0.000000
vt 47.938931 -1.561069 0.000000
vt 55.938931 -9.561069 0.000000
vt 55.938931 5.438931 0.000000
vt -60.061069 5.438931 0.000000
vt 47.938931 2.438931 0.000000
vt 47.938931 -9.561069 0.000000
vt 8.000000 18.000000 0.000000
vt 0.000000 18.000000 0.000000
vt 8.000000 -18.000000 0.000000
vt 0.000000 -18.000000 0.000000
vt 15.000000 18.000000 0.000000
vt 0.000000 18.000000 0.000000
vt 15.000000 -18.000000 0.000000
vt 0.000000 -18.000000 0.000000
vt 8.000000 15.000000 0.000000
vt 0.000000 -18.000000 0.000000
vt 8.000000 -15.000000 0.000000
vt 116.000000 -18.000000 0.000000
vt 108.000000 -15.000000 0.000000
vt 108.000000 15.000000 0.000000
vt 116.000000 18.000000 0.000000
vt -0.000000 18.000000 0.000000
vt 10.000000 18.000000 0.000000
vt 0.000000 18.000000 0.000000
vt 10.000000 -18.000000 0.000000
vt 0.000000 -18.000000 0.000000
vt 0.000000 -15.000000 0.000000
vt 0.000000 -18.000000 0.000000
vt 100.000000 -15.000000 0.000000
vt 108.000000 -18.000000 0.000000
vt 100.000000 15.000000 0.000000
vt 108.000000 18.000000 0.000000
vt 0.000000 18.000000 0.000000
vt 0.000000 15.000000 0.000000
vt 52.061069 -1.561069 0.000000
vt 60.061069 -4.561069 0.000000
vt 52.061069 2.438931 0.000000
vt 60.061069 5.438931 0.000000
vt -55.938931 5.438931 0.000000
vt -47.938931 -4.561069 0.000000
vt -47.938931 -1.561069 0.000000
vt -55.938931 -9.561069 0.000000
vt -47.938931 2.438931 0.000000
vt -47.938931 -9.561069 0.000000
vn -1.000000 -0.000000 0.000000
vn -1.000000 -0.000000 0.000000
vn -1.000000 -0.000000 0.000000
vn -1.000000 -0.000000 0.000000
vn -1.000000 -0.000000 0.000000
vn -1.000000 -0.000000 0.000000
vn -1.000000 -0.000000 0.000000
vn -1.000000 -0.000000 0.000000
vn 1.000000 -0.000000 -0.000000
vn 1.000000 -0.000000 -0.000000
vn 1.000000 -0.000000 -0.000000
vn 1.000000 -0.000000 -0.000000
vn 1.000000 -0.000000 -0.000000
vn 1.000000 -0.000000 -0.000000
vn 1.000000 -0.000000 -0.000000
vn 1.000000 -0.000000 -0.000000
vn 0.000000 0.000000 1.000000
vn 0.000000 0.000000 1.000000
vn 0.000000 0.000000 1.000000
vn 0.000000 0.000000 1.000000
vn 0.000000 0.000000 1.000000
vn 0.000000 0.000000 1.000000
vn 0.000000 0.000000 1.000000
vn 0.000000 0.000000 1.000000
vn 0.000000 0.000000 1.000000
vn 0.000000 0.000000 1.000000
vn 0.000000 0.000000 1.000000
vn 0.000000 0.000000 1.000000
vn 0.000000 0.000000 1.000000
vn 0.000000 0.000000 1.000000
vn 0.000000 0.000000 1.000000
vn 0.000000 0.000000 1.000000
vn -0.000000 1.000000 -0.000000
vn -0.000000 1.000000 -0.000000
vn -0.000000 1.000000 -0.000000
vn -0.000000 1.000000 -0.000000
vn -0.000000 -1.000000 0.000000
vn -0.000000 -1.000000 0.000000
vn -0.000000 -1.000000 0.000000
vn -0.000000 -1.000000 0.000000
vn -0.000000 1.000000 -0.000000
vn -0.000000 1.000000 -0.000000
vn -0.000000 1.000000 -0.000000
vn -0.000000 1.000000 -0.000000
vn 0.000000 -0.000000 -1.000000
vn 0.000000 -0.000000 -1.000000
vn 0.000000 -0.000000 -1.000000
vn 0.000000 -0.000000 -1.000000
vn 0.000000 -0.000000 -1.000000
vn 0.000000 -0.000000 -1.000000
vn 0.000000 -0.000000 -1.000000
vn 0.000000 -0.000000 -1.000000
vn 0.000000 -0.000000 -1.000000
vn 0.000000 -0.000000 -1.000000
vn 0.000000 -0.000000 -1.000000
vn 0.000000 -0.000000 -1.000000
vn -0.000000 -1.000000 0.000000
vn -0.000000 -1.000000 0.000000
vn -0.000000 -1.000000 0.000000
vn -0.000000 -1.000000 0.000000
vn 0.000000 -1.000000 0.000000
vn 0.000000 -1.000000 0.000000
vn 0.000000 -1.000000 0.000000
vn 0.000000 -1.000000 0.000000
vn 0.000000 -1.000000 0.000000
vn 0.000000 -1.000000 0.000000
vn 0.000000 -1.000000 0.000000
vn 0.000000 -1.000000 0.000000
vn 0.000000 -1.000000 0.000000
vn 0.000000 -1.000000 0.000000
vn -1.000000 0.000000 0.000000
vn -1.000000 0.000000 0.000000
vn -1.000000 0.000000 0.000000
vn -1.000000 0.000000 0.000000
vn -0.000000 0.000000 -1.000000
vn -0.000000 0.000000 -1.000000
vn -0.000000 0.000000 -1.000000
vn -0.000000 0.000000 -1.000000
vn 1.000000 0.000000 0.000000
vn 1.000000 0.000000 0.000000
vn 1.000000 0.000000 0.000000
vn 1.000000 0.000000 0.000000
vn 1.000000 0.000000 0.000000
vn 1.000000 0.000000 0.000000
vn 1.000000 0.000000 0.000000
vn 1.000000 0.000000 0.000000
vn 0.000000 -0.000000 1.000000
vn 0.000000 -0.000000 1.000000
vn 0.000000 -0.000000 1.000000
vn 0.000000 -0.000000 1.000000
vn -1.000000 0.000000 0.000000
vn -1.000000 0.000000 0.000000
vn -1.000000 0.000000 0.000000
vn -1.000000 0.000000 0.000000
vn -1.000000 0.000000 0.000000
vn -1.000000 0.000000 0.000000
vn -1.000000 0.000000 0.000000
vn -1.000000 0.000000 0.000000
vn 0.000000 1.000000 0.000000
vn 0.000000 1.000000 0.000000
vn 0.000000 1.000000 0.000000
vn 0.000000 1.000000 0.000000
vn 0.000000 1.000000 0.000000
vn 0.000000 1.000000 0.000000
vn 0.000000 1.000000 0.000000
vn 0.000000 1.000000 0.000000
vn 0.000000 1.000000 0.000000
vn 0.000000 1.000000 0.000000
usemtl 191,191,191
f 1/1/1 2/2/2 4/3/3
f 4/3/3 2/2/2 3/4/4
f 5/5/5 6/6/6 8/7/7
f 8/7/7 6/6/6 7/8/8
f 9/9/9 10/10/10 12/11/11
f 12/11/11 10/10/10 11/12/12
f 13/13/13 14/14/14 16/15/15
f 16/15/15 14/14/14 15/16/16
f 17/17/17 1/18/18 6/19/19
f 6/19/19 1/18/18 10/20/20
f 6/19/19 10/20/20 13/21/21
f 13/21/21 10/20/20 19/22/22
f 13/21/21 19/22/22 24/23/23
f 24/23/23 19/22/22 22/24/24
f 24/23/23 22/24/24 23/25/25
f 17/17/17 18/26/26 1/18/18
f 4/27/27 11/28/28 1/18/18
f 1/18/18 11/28/28 10/20/20
f 20/29/29 21/30/30 19/22/22
f 19/22/22 21/30/30 22/24/24
f 16/31/31 7/32/32 13/21/21
f 13/21/21 7/32/32 6/19/19
f 6/33/33 5/34/34 17/35/35
f 17/35/35 5/34/34 25/36/36
f 10/37/37 9/38/38 19/39/39
f 19/39/39 9/38/38 26/40/40
f 14/41/41 13/42/42 27/43/43
f 27/43/43 13/42/42 24/44/44
f 27/45/45 26/46/46 14/47/47
f 14/47/47 26/46/46 9/48/48
f 14/47/47 9/48/48 5/49/49
f 5/49/49 9/48/48 2/50/50
f 5/49/49 2/50/50 25/51/51
f 25/51/51 2/50/50 28/52/52
f 9/48/48 12/53/53 2/50/50
f 2/50/50 12/53/53 3/54/54
f 5/49/49 8/55/55 14/47/47
f 14/47/47 8/55/55 15/56/56
f 2/57/57 1/58/58 28/59/59
f 28/59/59 1/58/58 18/60/60
f 8/61/61 32/62/62 15/63/63
f 15/63/63 32/62/62 23/64/64
f 15/63/63 23/64/64 16/65/65
f 16/65/65 23/64/64 29/66/66
f 16/65/65 29/66/66 30/67/67
f 32/62/62 8/61/61 31/68/68
f 31/68/68 8/61/61 7/69/69
f 31/68/68 7/69/69 30/67/67
f 30/67/67 7/69/69 16/65/65
f 23/64/64 22/70/70 29/66/66
f 21/71/71 33/72/72 22/73/73
f 22/73/73 33/72/72 29/74/74
f 33/75/75 34/76/76 29/77/77
f 29/77/77 34/76/76 30/78/78
f 28/79/79 31/80/80 25/81/81
f 25/81/81 31/80/80 30/82/82
f 25/81/81 30/82/82 17/83/83
f 17/83/83 30/82/82 18/84/84
f 18/84/84 30/82/82 34/85/85
f 18/84/84 34/85/85 35/86/86
f 31/80/80 28/79/79 35/86/86
f 35/86/86 28/79/79 18/84/84
f 35/87/87 36/88/88 31/89/89
f 31/89/89 36/88/88 32/90/90
f 24/91/91 23/92/92 27/93/93
f 27/93/93 23/92/92 32/94/94
f 27/93/93 32/94/94 26/95/95
f 26/95/95 32/94/94 36/96/96
f 26/95/95 36/96/96 20/97/97
f 20/97/97 19/98/98 26/95/95
f 12/99/99 36/100/100 3/101/101
f 3/101/101 36/100/100 35/102/102
f 3/101/101 35/102/102 34/103/103
f 36/100/100 12/99/99 20/104/104
f 20/104/104 12/99/99 11/105/105
f 20/104/104 11/105/105 33/106/106
f 33/106/106 11/105/105 34/103/103
f 34/103/103 11/105/105 4/107/107
f 34/103/103 4/107/107 3/101/101
f 21/108/108 20/104/104 33/106/106

# 36 vertices
# 108 texture params
# 108 normals
# 80 facets

# 1 groups
