# WaveFront *.obj file (generated by Autodesk ATF)

mtllib hslider.mtl

g Solid2

v 15.000000 1.100000 -1.100000
v 15.000000 1.100000 1.100000
v 13.000000 1.100000 1.100000
v 13.000000 1.100000 -1.100000
v 13.000000 2.000000 1.100000
v 13.000000 2.000000 -1.100000
v 5.000000 2.000000 -1.100000
v 5.000000 -1.100000 -1.100000
v 15.000000 -1.100000 -1.100000
v 15.000000 -1.100000 1.100000
v 5.000000 -1.100000 1.100000
v 5.000000 2.000000 1.100000
v 15.000000 2.000000 2.000000
v 15.000000 2.000000 -2.000000
v 0.000000 2.000000 -2.000000
v 0.000000 2.000000 2.000000
v 15.000000 -5.000000 1.000000
v 15.000000 -2.000000 1.000000
v 14.000000 -2.000000 1.000000
v 14.000000 -5.000000 1.000000
v 15.000000 -5.000000 -1.000000
v 14.000000 -5.000000 -1.000000
v 15.000000 -2.000000 -1.000000
v 14.000000 -2.000000 -1.000000
v 0.000000 -2.000000 -2.000000
v 15.000000 -2.000000 -2.000000
v 15.000000 -2.000000 2.000000
v 0.000000 -2.000000 2.000000
vt 0.000000 0.000000 0.000000
vt 2.200000 0.000000 0.000000
vt 0.000000 2.000000 0.000000
vt 2.200000 2.000000 0.000000
vt 1.100000 0.450000 0.000000
vt -1.100000 0.450000 0.000000
vt 1.100000 -0.450000 0.000000
vt -1.100000 -0.450000 0.000000
vt -1.123476 0.000000 0.000000
vt -1.123476 2.000000 0.000000
vt -3.323476 0.000000 0.000000
vt -3.323476 10.000000 0.000000
vt -0.223476 10.000000 0.000000
vt -0.223476 2.000000 0.000000
vt -2.200000 0.000000 0.000000
vt -0.000000 0.000000 0.000000
vt -2.200000 2.000000 0.000000
vt -0.000000 10.000000 0.000000
vt -3.100000 10.000000 0.000000
vt -3.100000 2.000000 0.000000
vt 1.100000 1.438262 0.000000
vt -1.100000 1.438262 0.000000
vt 1.100000 -1.661738 0.000000
vt -1.100000 -1.661738 0.000000
vt -2.200000 0.000000 0.000000
vt -0.000000 0.000000 0.000000
vt -2.200000 10.000000 0.000000
vt 0.000000 10.000000 0.000000
vt 3.100000 5.000000 0.000000
vt 4.000000 15.000000 0.000000
vt 3.100000 13.000000 0.000000
vt 0.000000 15.000000 0.000000
vt 0.900000 13.000000 0.000000
vt 0.900000 5.000000 0.000000
vt 0.000000 0.000000 0.000000
vt 4.000000 0.000000 0.000000
vt 0.000000 0.000000 0.000000
vt 3.000000 0.000000 0.000000
vt 0.000000 1.000000 0.000000
vt 3.000000 1.000000 0.000000
vt 0.000000 0.000000 0.000000
vt 2.000000 0.000000 0.000000
vt 0.000000 1.000000 0.000000
vt 2.000000 1.000000 0.000000
vt 0.000000 0.000000 0.000000
vt 3.000000 0.000000 0.000000
vt -0.000000 1.000000 0.000000
vt 3.000000 1.000000 0.000000
vt 1.000000 1.500000 0.000000
vt -1.000000 1.500000 0.000000
vt 1.000000 -1.500000 0.000000
vt -1.000000 -1.500000 0.000000
vt 0.000000 0.000000 0.000000
vt 4.000000 0.000000 0.000000
vt 0.000000 15.000000 0.000000
vt 4.000000 15.000000 0.000000
vt 1.000000 15.000000 0.000000
vt 0.000000 15.000000 0.000000
vt 1.000000 14.000000 0.000000
vt 0.000000 0.000000 0.000000
vt 4.000000 0.000000 0.000000
vt 3.000000 14.000000 0.000000
vt 4.000000 15.000000 0.000000
vt 3.000000 15.000000 0.000000
vt -0.000000 0.000000 0.000000
vt 4.000000 0.000000 0.000000
vt -0.000000 15.000000 0.000000
vt 4.000000 15.000000 0.000000
vt 2.000000 2.000000 0.000000
vt -2.000000 2.000000 0.000000
vt 2.000000 -2.000000 0.000000
vt -2.000000 -2.000000 0.000000
vt 2.000000 -2.000000 0.000000
vt 2.000000 2.000000 0.000000
vt 1.100000 1.100000 0.000000
vt -2.000000 2.000000 0.000000
vt -1.100000 1.100000 0.000000
vt -2.000000 -2.000000 0.000000
vt -1.100000 -1.100000 0.000000
vt -1.000000 -2.000000 0.000000
vt 1.000000 -2.000000 0.000000
vt 1.000000 -5.000000 0.000000
vt -1.000000 -5.000000 0.000000
vt 1.100000 -1.100000 0.000000
vn 0.000000 -1.000000 0.000000
vn 0.000000 -1.000000 0.000000
vn 0.000000 -1.000000 0.000000
vn 0.000000 -1.000000 0.000000
vn -1.000000 0.000000 0.000000
vn -1.000000 0.000000 0.000000
vn -1.000000 0.000000 0.000000
vn -1.000000 0.000000 0.000000
vn -0.000000 -0.000000 1.000000
vn -0.000000 -0.000000 1.000000
vn -0.000000 -0.000000 1.000000
vn -0.000000 -0.000000 1.000000
vn -0.000000 -0.000000 1.000000
vn -0.000000 -0.000000 1.000000
vn -0.000000 0.000000 -1.000000
vn -0.000000 0.000000 -1.000000
vn -0.000000 0.000000 -1.000000
vn -0.000000 0.000000 -1.000000
vn -0.000000 0.000000 -1.000000
vn -0.000000 0.000000 -1.000000
vn 1.000000 -0.000000 -0.000000
vn 1.000000 -0.000000 -0.000000
vn 1.000000 -0.000000 -0.000000
vn 1.000000 -0.000000 -0.000000
vn 0.000000 1.000000 0.000000
vn 0.000000 1.000000 0.000000
vn 0.000000 1.000000 0.000000
vn 0.000000 1.000000 0.000000
vn -0.000000 1.000000 0.000000
vn -0.000000 1.000000 0.000000
vn -0.000000 1.000000 0.000000
vn -0.000000 1.000000 0.000000
vn -0.000000 1.000000 0.000000
vn -0.000000 1.000000 0.000000
vn -0.000000 1.000000 0.000000
vn -0.000000 1.000000 0.000000
vn 0.000000 -0.000000 1.000000
vn 0.000000 -0.000000 1.000000
vn 0.000000 -0.000000 1.000000
vn 0.000000 -0.000000 1.000000
vn 0.000000 -1.000000 0.000000
vn 0.000000 -1.000000 0.000000
vn 0.000000 -1.000000 0.000000
vn 0.000000 -1.000000 0.000000
vn 0.000000 0.000000 -1.000000
vn 0.000000 0.000000 -1.000000
vn 0.000000 0.000000 -1.000000
vn 0.000000 0.000000 -1.000000
vn -1.000000 0.000000 0.000000
vn -1.000000 0.000000 0.000000
vn -1.000000 0.000000 0.000000
vn -1.000000 0.000000 0.000000
vn 0.000000 0.000000 -1.000000
vn 0.000000 0.000000 -1.000000
vn 0.000000 0.000000 -1.000000
vn 0.000000 0.000000 -1.000000
vn 0.000000 -1.000000 -0.000000
vn 0.000000 -1.000000 -0.000000
vn 0.000000 -1.000000 -0.000000
vn 0.000000 -1.000000 -0.000000
vn 0.000000 -1.000000 -0.000000
vn 0.000000 -1.000000 -0.000000
vn 0.000000 -1.000000 -0.000000
vn 0.000000 -1.000000 -0.000000
vn 0.000000 -0.000000 1.000000
vn 0.000000 -0.000000 1.000000
vn 0.000000 -0.000000 1.000000
vn 0.000000 -0.000000 1.000000
vn -1.000000 -0.000000 -0.000000
vn -1.000000 -0.000000 -0.000000
vn -1.000000 -0.000000 -0.000000
vn -1.000000 -0.000000 -0.000000
vn 1.000000 0.000000 0.000000
vn 1.000000 0.000000 0.000000
vn 1.000000 0.000000 0.000000
vn 1.000000 0.000000 0.000000
vn 1.000000 0.000000 0.000000
vn 1.000000 0.000000 0.000000
vn 1.000000 0.000000 0.000000
vn 1.000000 0.000000 0.000000
vn 1.000000 0.000000 0.000000
vn 1.000000 0.000000 0.000000
vn 1.000000 0.000000 0.000000
vn 1.000000 0.000000 0.000000
usemtl 191,191,191
f 1/1/1 2/2/2 4/3/3
f 4/3/3 2/2/2 3/4/4
f 5/5/5 6/6/6 3/7/7
f 3/7/7 6/6/6 4/8/8
f 1/9/9 4/10/10 9/11/11
f 9/11/11 4/10/10 8/12/12
f 8/12/12 4/10/10 7/13/13
f 7/13/13 4/10/10 6/14/14
f 2/15/15 10/16/16 3/17/17
f 3/17/17 10/16/16 11/18/18
f 3/17/17 11/18/18 12/19/19
f 12/19/19 5/20/20 3/17/17
f 7/21/21 12/22/22 8/23/23
f 8/23/23 12/22/22 11/24/24
f 10/25/25 9/26/26 11/27/27
f 11/27/27 9/26/26 8/28/28
f 12/29/29 13/30/30 5/31/31
f 5/31/31 13/30/30 14/32/32
f 5/31/31 14/32/32 6/33/33
f 6/33/33 14/32/32 7/34/34
f 7/34/34 14/32/32 15/35/35
f 7/34/34 15/35/35 16/36/36
f 13/30/30 12/29/29 16/36/36
f 16/36/36 12/29/29 7/34/34
f 17/37/37 18/38/38 20/39/39
f 20/39/39 18/38/38 19/40/40
f 21/41/41 17/42/42 22/43/43
f 22/43/43 17/42/42 20/44/44
f 23/45/45 21/46/46 24/47/47
f 24/47/47 21/46/46 22/48/48
f 19/49/49 24/50/50 20/51/51
f 20/51/51 24/50/50 22/52/52
f 25/53/53 15/54/54 26/55/55
f 26/55/55 15/54/54 14/56/56
f 18/57/57 27/58/58 19/59/59
f 19/59/59 27/58/58 28/60/60
f 19/59/59 28/60/60 25/61/61
f 19/59/59 25/61/61 24/62/62
f 24/62/62 25/61/61 26/63/63
f 24/62/62 26/63/63 23/64/64
f 16/65/65 28/66/66 13/67/67
f 13/67/67 28/66/66 27/68/68
f 16/69/69 15/70/70 28/71/71
f 28/71/71 15/70/70 25/72/72
f 26/73/73 14/74/74 1/75/75
f 1/75/75 14/74/74 13/76/76
f 1/75/75 13/76/76 2/77/77
f 2/77/77 13/76/76 27/78/78
f 2/77/77 27/78/78 10/79/79
f 10/79/79 27/78/78 18/80/80
f 10/79/79 18/80/80 23/81/81
f 23/81/81 18/80/80 21/82/82
f 21/82/82 18/80/80 17/83/83
f 10/79/79 23/81/81 9/84/84
f 9/84/84 23/81/81 26/73/73
f 9/84/84 26/73/73 1/75/75

# 28 vertices
# 84 texture params
# 84 normals
# 56 facets

# 1 groups
